HIERARCHY
ROOT hips
{
  OFFSET 0 10.680822821525009 1.3929502295107734
  CHANNELS 6 Xposition Yposition Zposition Yrotation Xrotation Zrotation
  JOINT spine
  {
    OFFSET -7.042017322922631e-31 0.6058489940359625 0
    CHANNELS 3 Yrotation Xrotation Zrotation
    JOINT chest
    {
      OFFSET 0 1.2699794144455032 0
      CHANNELS 3 Yrotation Xrotation Zrotation
      JOINT upperChest
      {
        OFFSET 0 1.217799211677689 0
        CHANNELS 3 Yrotation Xrotation Zrotation
        JOINT neck
        {
          OFFSET 0 1.5248826104153006 0
          CHANNELS 3 Yrotation Xrotation Zrotation
          JOINT head
          {
            OFFSET 0 0.8197772727844447 0
            CHANNELS 3 Yrotation Xrotation Zrotation
            JOINT leftEye
            {
              OFFSET 0.2793952361220866 0.6769952096623495 0.1830357412467788
              CHANNELS 3 Yrotation Xrotation Zrotation
              End Site
              {
                OFFSET 0.2793952361220866 0.6769952096623495 0.1830357412467788
              }
            }
            JOINT rightEye
            {
              OFFSET -0.27939522230689573 0.676995205357064 0.18303631459760622
              CHANNELS 3 Yrotation Xrotation Zrotation
              End Site
              {
                OFFSET -0.27939522230689573 0.676995205357064 0.18303631459760622
              }
            }
          }
        }
        JOINT leftShoulder
        {
          OFFSET 0.41486978509200423 1.1670505408695453 0
          CHANNELS 3 Yrotation Xrotation Zrotation
          JOINT leftUpperArm
          {
            OFFSET 0.9737926108153417 0 0
            CHANNELS 3 Yrotation Xrotation Zrotation
            JOINT leftLowerArm
            {
              OFFSET 2.5269332222665284 0 0
              CHANNELS 3 Yrotation Xrotation Zrotation
              JOINT leftHand
              {
                OFFSET 2.4263782738425914 0 0
                CHANNELS 3 Yrotation Xrotation Zrotation
                JOINT leftIndexProximal
                {
                  OFFSET 0.724320348022514 0.08170607082582437 0.20360061616140124
                  CHANNELS 3 Yrotation Xrotation Zrotation
                  JOINT leftIndexIntermediate
                  {
                    OFFSET 0.36548960630744587 -0.010566596513783999 -0.01414783573280308
                    CHANNELS 3 Yrotation Xrotation Zrotation
                    JOINT leftIndexDistal
                    {
                      OFFSET 0.22502819650693362 -0.007863819831430696 -0.007567681939621526
                      CHANNELS 3 Yrotation Xrotation Zrotation
                      End Site
                      {
                        OFFSET 0.22502819650693362 -0.007863819831430696 -0.007567681939621526
                      }
                    }
                  }
                }
                JOINT leftLittleProximal
                {
                  OFFSET 0.6720322998298205 0.08170601055037707 -0.3230036039466837
                  CHANNELS 3 Yrotation Xrotation Zrotation
                  JOINT leftLittleIntermediate
                  {
                    OFFSET 0.34583592281688713 5.476543019078406e-8 1.3869203337180114e-7
                    CHANNELS 3 Yrotation Xrotation Zrotation
                    JOINT leftLittleDistal
                    {
                      OFFSET 0.19925728062053938 0.003098047439490381 0.0038303983709246925
                      CHANNELS 3 Yrotation Xrotation Zrotation
                      End Site
                      {
                        OFFSET 0.19925728062053938 0.003098047439490381 0.0038303983709246925
                      }
                    }
                  }
                }
                JOINT leftMiddleProximal
                {
                  OFFSET 0.7300436596551069 0.0817073395107144 0.022661722987926763
                  CHANNELS 3 Yrotation Xrotation Zrotation
                  JOINT leftMiddleIntermediate
                  {
                    OFFSET 0.40758254347686607 -0.0000012383587111308714 2.408460318820138e-7
                    CHANNELS 3 Yrotation Xrotation Zrotation
                    JOINT leftMiddleDistal
                    {
                      OFFSET 0.2514490105498507 0.0000013869132886590307 9.738618134136345e-8
                      CHANNELS 3 Yrotation Xrotation Zrotation
                      End Site
                      {
                        OFFSET 0.2514490105498507 0.0000013869132886590307 9.738618134136345e-8
                      }
                    }
                  }
                }
                JOINT leftRingProximal
                {
                  OFFSET 0.7217261161191838 0.08170601902187746 -0.15043395722184966
                  CHANNELS 3 Yrotation Xrotation Zrotation
                  JOINT leftRingIntermediate
                  {
                    OFFSET 0.37808807487521556 0.0000013754022405443322 2.2046919317952884e-7
                    CHANNELS 3 Yrotation Xrotation Zrotation
                    JOINT leftRingDistal
                    {
                      OFFSET 0.21812105442344254 -0.002713483731960231 -0.004991354517454624
                      CHANNELS 3 Yrotation Xrotation Zrotation
                      End Site
                      {
                        OFFSET 0.21812105442344254 -0.002713483731960231 -0.004991354517454624
                      }
                    }
                  }
                }
                JOINT leftThumbProximal
                {
                  OFFSET 0.10793587079521427 -0.1652791240518252 -0.07775251827190094
                  CHANNELS 3 Yrotation Xrotation Zrotation
                  JOINT leftThumbIntermediate
                  {
                    OFFSET 0.40355819082296684 -0.017484006740276614 0.3177776014416309
                    CHANNELS 3 Yrotation Xrotation Zrotation
                    JOINT leftThumbDistal
                    {
                      OFFSET 0.2318764658022603 -0.018510186824293617 0.21396001800186287
                      CHANNELS 3 Yrotation Xrotation Zrotation
                      End Site
                      {
                        OFFSET 0.2318764658022603 -0.018510186824293617 0.21396001800186287
                      }
                    }
                  }
                }
              }
            }
          }
        }
        JOINT rightShoulder
        {
          OFFSET -0.4148697850920044 1.1670505408695453 0
          CHANNELS 3 Yrotation Xrotation Zrotation
          JOINT rightUpperArm
          {
            OFFSET -0.9737926108153414 0 0
            CHANNELS 3 Yrotation Xrotation Zrotation
            JOINT rightLowerArm
            {
              OFFSET -2.5269332222665293 0 0
              CHANNELS 3 Yrotation Xrotation Zrotation
              JOINT rightHand
              {
                OFFSET -2.42637827384259 0 0
                CHANNELS 3 Yrotation Xrotation Zrotation
                JOINT rightIndexProximal
                {
                  OFFSET -0.724320348022514 0.08170607082582437 0.20360061616140124
                  CHANNELS 3 Yrotation Xrotation Zrotation
                  JOINT rightIndexIntermediate
                  {
                    OFFSET -0.36548960630744587 -0.010566596513783999 -0.01414783573280308
                    CHANNELS 3 Yrotation Xrotation Zrotation
                    JOINT rightIndexDistal
                    {
                      OFFSET -0.22502819650693362 -0.007863819831430696 -0.007567681939621526
                      CHANNELS 3 Yrotation Xrotation Zrotation
                      End Site
                      {
                        OFFSET -0.22502819650693362 -0.007863819831430696 -0.007567681939621526
                      }
                    }
                  }
                }
                JOINT rightLittleProximal
                {
                  OFFSET -0.6720322998298205 0.08170601055037707 -0.3230036039466837
                  CHANNELS 3 Yrotation Xrotation Zrotation
                  JOINT rightLittleIntermediate
                  {
                    OFFSET -0.34583592281688713 5.476543019078406e-8 1.3869203337180114e-7
                    CHANNELS 3 Yrotation Xrotation Zrotation
                    JOINT rightLittleDistal
                    {
                      OFFSET -0.19925728062053938 0.003098047439490381 0.0038303983709246925
                      CHANNELS 3 Yrotation Xrotation Zrotation
                      End Site
                      {
                        OFFSET -0.19925728062053938 0.003098047439490381 0.0038303983709246925
                      }
                    }
                  }
                }
                JOINT rightMiddleProximal
                {
                  OFFSET -0.7300436596551069 0.0817073395107144 0.022661722987926763
                  CHANNELS 3 Yrotation Xrotation Zrotation
                  JOINT rightMiddleIntermediate
                  {
                    OFFSET -0.40758254347686607 -0.0000012383587111308714 2.408460318820138e-7
                    CHANNELS 3 Yrotation Xrotation Zrotation
                    JOINT rightMiddleDistal
                    {
                      OFFSET -0.2514490105498507 0.0000013869132886590307 9.738618134136345e-8
                      CHANNELS 3 Yrotation Xrotation Zrotation
                      End Site
                      {
                        OFFSET -0.2514490105498507 0.0000013869132886590307 9.738618134136345e-8
                      }
                    }
                  }
                }
                JOINT rightRingProximal
                {
                  OFFSET -0.7217261161191838 0.08170601902187746 -0.15043395722184966
                  CHANNELS 3 Yrotation Xrotation Zrotation
                  JOINT rightRingIntermediate
                  {
                    OFFSET -0.37808807487521556 0.0000013754022405443322 2.2046919317952884e-7
                    CHANNELS 3 Yrotation Xrotation Zrotation
                    JOINT rightRingDistal
                    {
                      OFFSET -0.21812105442344254 -0.002713483731960231 -0.004991354517454624
                      CHANNELS 3 Yrotation Xrotation Zrotation
                      End Site
                      {
                        OFFSET -0.21812105442344254 -0.002713483731960231 -0.004991354517454624
                      }
                    }
                  }
                }
                JOINT rightThumbProximal
                {
                  OFFSET -0.10793587079521427 -0.1652791240518252 -0.07775251827190094
                  CHANNELS 3 Yrotation Xrotation Zrotation
                  JOINT rightThumbIntermediate
                  {
                    OFFSET -0.40355819082296684 -0.017484006740276614 0.3177776014416309
                    CHANNELS 3 Yrotation Xrotation Zrotation
                    JOINT rightThumbDistal
                    {
                      OFFSET -0.2318764658022603 -0.018510186824293617 0.21396001800186287
                      CHANNELS 3 Yrotation Xrotation Zrotation
                      End Site
                      {
                        OFFSET -0.2318764658022603 -0.018510186824293617 0.21396001800186287
                      }
                    }
                  }
                }
              }
            }
          }
        }
      }
    }
  }
  JOINT leftUpperLeg
  {
    OFFSET 0.8486251390888677 -0.4421577294694363 0
    CHANNELS 3 Yrotation Xrotation Zrotation
    JOINT leftLowerLeg
    {
      OFFSET 0 -4.10147812638609 0
      CHANNELS 3 Yrotation Xrotation Zrotation
      JOINT leftFoot
      {
        OFFSET -0.0002543926476658853 -4.77292286812444 0.007402811231737388
        CHANNELS 3 Yrotation Xrotation Zrotation
        JOINT leftToes
        {
          OFFSET 0 -0.7027875951174846 1.2062924140498823
          CHANNELS 3 Yrotation Xrotation Zrotation
          End Site
          {
            OFFSET 0 -0.7027875951174846 1.2062924140498823
          }
        }
      }
    }
  }
  JOINT rightUpperLeg
  {
    OFFSET -0.8486251390888677 -0.4421577294694363 0
    CHANNELS 3 Yrotation Xrotation Zrotation
    JOINT rightLowerLeg
    {
      OFFSET 0 -4.10147812638609 0
      CHANNELS 3 Yrotation Xrotation Zrotation
      JOINT rightFoot
      {
        OFFSET 0.0002543926476658853 -4.77292286812444 0.007402811231737388
        CHANNELS 3 Yrotation Xrotation Zrotation
        JOINT rightToes
        {
          OFFSET 0 -0.7027875951174846 1.2062924140498823
          CHANNELS 3 Yrotation Xrotation Zrotation
          End Site
          {
            OFFSET 0 -0.7027875951174846 1.2062924140498823
          }
        }
      }
    }
  }
}
MOTION
Frames: 4
Frame Time: 0.03333333333333333
-0.6923080086708069 -5.327883215812118 -0.8367227911949158 5.310863738770851 -10.122971748723074 27.1660761551086 -0.26867036979267267 14.14745311984999 -2.9733235301700986 -4.467805533916249 56.41034702751891 -13.539566917568271 0 0 0 -11.540302793987324 9.108335189317811 0.9961076185512883 -8.709969262008878 -34.74620610146698 0.6672097991503309 0 0 0 0 0 0 0.3899810563918075 -1.0672022455943473 -4.595309947202016 14.601045753822621 -18.975445577885694 -65.37014276723015 -92.85840349025908 4.186270675232282 0.7317946161129789 7.8700628020518995 28.272861248974408 5.123892044648733 13.39778734791739 -1.0264236918458853 -24.71828900831527 1.188228238770994 0.3406079853874347 -14.693455860442626 8.521945135744659e-7 -2.1792191244321106e-7 0.0000025309313239954577 6.177709067498141 4.180562075868584 -31.560575244164966 -4.756423844860265 -1.198104093991661 -25.53946859422207 -0.0000028683436988220705 0.000001743009103201884 -0.0000024985008617970084 4.674769755300695 1.3926459962677 -25.826941080099612 -0.5006594736085155 -0.0675668882924693 -10.796574171082545 1.139979627027678e-10 6.3611093629270335e-15 -1.43444452663829e-12 5.992515096557698 1.4705186703435003 -31.30322025647604 -1.9900032187831396 -0.8414342589849304 -29.30717712700529 7.981372973195629e-7 -2.494114139002586e-7 -1.0309038062664593e-8 6.59335345568165 9.06251718252284 4.5148112852279345 22.296400445566867 1.543918124377515 8.174171495151539 0.000007611937552502998 0.000009677048807183644 -0.000010755909239575867 6.023355553290104 -4.5247252680201475 2.7595422607337134 34.73285250644394 -2.5712732003274916 32.83615821835446 44.52202314761311 -3.097248357646491 -0.5060618478717456 -3.663036304202706 -1.6518107017793386 -10.199174055777219 -9.752589810649226 -0.0879517334830511 32.59792796069078 -0.7752827224890971 0.11256895373963734 12.946781000654362 3.933694872703174e-10 3.1805546814635168e-15 -4.874754472204794e-12 3.9893369012318054 -3.6346704414132134 32.937406558878585 4.066434322620878 -1.1568616389067405 20.262876541344934 0.0000016797014090447868 0.000003467099351158676 0.000006747616474483437 -6.794957789178267 4.259815063282646 25.89686687237619 1.4055052074987493 -0.30314874189458124 21.184767935776105 -0.0000034474998063228686 0.000008070193906563331 0.0000029748370153329526 -3.0966422662042943 -1.6600102462593331 30.967443202372873 1.2318235622925702 -0.6775856608206215 25.485669373300006 -3.2495571969444293e-7 -0.000001899806886776792 -0.000001183279111251214 -4.496305503806005 7.343035693990293 19.26161553095102 -19.140370426966566 -7.6745131697808775 -8.803832643749473 0.000002231324090779093 0.000004237706734044115 0.000007466467021815095 -2.811629037380493 -65.25567650799877 20.05778718231187 -0.6143064654247982 65.1817536986726 -2.5115254425679754 -23.822594116880623 10.065517332038244 -20.348905918033715 5.3454681659646885 -4.081339967489506 -9.512420622491907 -9.945125238095972 -24.621710579507035 -47.911387297343545 175.28378971951744 50.08672659427426 176.31186826592398 7.848702314833789 2.928918872944801 -16.91484668091804 1.8147618310973375 -21.67303222825532 -2.7713827119615435
-0.5631381869316101 -5.401967020896347 -0.8158994317054749 3.7932659513984723 -11.143425278619173 27.852170429493512 -0.16085016581029418 14.455364018853325 -3.1445778394171 -4.634493518959874 57.6310076972656 -14.783173122788334 0 0 0 -11.249253773405878 8.01303207433781 0.5952734501290192 -8.845107392730144 -35.15012916939827 1.0209195941804887 0 0 0 0 0 0 0.39682594963842033 -1.030545628022999 -4.417969545316083 16.016265853719542 -18.62452861659705 -66.48611298121565 -95.50098322122471 4.090393341509364 0.7282532449255458 8.607723433672078 29.268836269587933 3.012280018127282 13.393461440809729 -0.9156981967397517 -24.751912975068848 1.186485682275129 0.3353527570783962 -14.678958558040852 8.521945135744659e-7 -2.1792191244321106e-7 0.0000025309313239954577 6.223363262745326 4.138082957787323 -31.703724032226138 -4.749323615950039 -1.191189265572677 -25.49811805648063 -0.0000028683436988220705 0.000001743009103201884 -0.0000024985008617970084 4.61832974220049 1.4481905831723005 -26.100995208496354 -0.48432884024088463 -0.06612424997229412 -10.520567023697541 1.139979627027678e-10 6.3611093629270335e-15 -1.43444452663829e-12 5.986763206026944 1.4510816389729873 -31.28625486769455 -1.9720111430322924 -0.8277798491524182 -29.103803990729798 7.981372973195629e-7 -2.494114139002586e-7 -1.0309038062664593e-8 6.526556755750495 8.870147070656735 4.374613075146524 22.568600683967485 1.5350683409078643 8.213277351364155 0.000007611937552502998 0.000009677048807183644 -0.000010755909239575867 6.5188457720551245 -5.79356438259702 2.204800346904451 34.20289279774106 -2.2158646391950128 32.49302651334129 44.90272457328809 -2.9776266771437228 -0.5069683842158741 -4.36573219418357 -1.4107452236833502 -9.415230501392116 -9.790288715277589 0.21627474508395875 33.729261983994896 -0.7848409109106665 0.11582944173022745 13.225903081722393 3.933694872703174e-10 3.1805546814635168e-15 -4.874754472204794e-12 4.221495358408801 -3.90225629510316 33.34904708807575 4.0675514389043155 -1.155302757793281 20.529444933446907 0.0000016797014090447868 0.000003467099351158676 0.000006747616474483437 -6.751863666434576 4.425078525992027 26.891439676252485 1.421240954701523 -0.3084878647666604 21.398925532652456 -0.0000034474998063228686 0.000008070193906563331 0.0000029748370153329526 -2.921548114775316 -1.822934764075906 31.74556013551714 1.2446995976863322 -0.6838409547424219 25.832003743130088 -3.2495571969444293e-7 -0.000001899806886776792 -0.000001183279111251214 -4.139940785162648 7.717402907106842 19.854314329493235 -19.267867726717903 -8.049385428940376 -8.865465900074671 0.000002231324090779093 0.000004237706734044115 0.000007466467021815095 -3.2885896123849188 -62.466371999409056 20.7990562211574 -1.4582397129174969 61.884270566057346 -3.199005057319333 -20.36383475807623 9.67884318034858 -19.72359245234466 5.412823835926225 -3.721177941991781 -9.619260817907842 -8.106430485453236 -23.40153332327022 -50.94413160446939 174.3816998340221 49.234713136496104 174.5595267244223 8.913889117094985 3.0391402544312607 -17.265147156066345 1.9154742683240367 -21.82063069182065 -2.8949848903731183
-0.4314464330673218 -5.479166479972275 -0.7974772453308105 2.3806810506025684 -11.845631728130371 28.35917758819423 -0.077550331796909 14.72803225486626 -3.278172788075555 -4.833383173546896 58.71167427245475 -15.8313946167723 0 0 0 -10.878381908992177 6.500051921228037 0.3611581110764867 -8.803726997339844 -35.29645089668169 1.182078764430602 0 0 0 0 0 0 0.4369644417951443 -0.993945576376494 -4.179385285645488 17.80527725811869 -18.535742822184744 -67.23454156115157 -97.88730893238733 3.7032704596278374 0.7237371352057232 8.779576834343201 30.77930099731681 0.8203800367048869 13.409315269204724 -0.7995624525740909 -24.66670363129571 1.183279306142547 0.32963304434876844 -14.64172159145162 8.521945135744659e-7 -2.1792191244321106e-7 0.0000025309313239954577 6.267624237898099 4.093014276850963 -31.830687928225327 -4.730843430075608 -1.1765043192148008 -25.389730523315276 -0.0000028683436988220705 0.000001743009103201884 -0.0000024985008617970084 4.571757230459947 1.509313601115776 -26.364180840495003 -0.46360450024341904 -0.06435449611821573 -10.173344152582981 1.139979627027678e-10 6.3611093629270335e-15 -1.43444452663829e-12 5.9748873858075235 1.4229694502495007 -31.18280538353562 -1.9425185214997105 -0.8064230908644275 -28.77241606039156 7.981372973195629e-7 -2.494114139002586e-7 -1.0309038062664593e-8 6.468107590771394 8.658876786647802 4.237260873092977 22.832994960121596 1.5350479497440934 8.25126531575984 0.000007611937552502998 0.000009677048807183644 -0.000010755909239575867 6.976952011021908 -7.009680890892612 1.6262964907431872 33.411250205048226 -2.1619983183895832 32.041039821128834 45.94490058937541 -2.8616751979690993 -0.5136027214694254 -5.362478115145507 -0.6263501070176252 -8.608066772496754 -9.842946168361765 0.5669536932713539 35.03311619150149 -0.7927213095471987 0.11886549386476015 13.45562144653068 3.933694872703174e-10 3.1805546814635168e-15 -4.874754472204794e-12 4.4078482890008654 -4.105688529162389 33.52476706500938 4.046574225670591 -1.1380617218247477 20.575332068934866 0.0000016797014090447868 0.000003467099351158676 0.000006747616474483437 -6.664317256552707 4.585717713320135 27.987777321892516 1.4258448156852417 -0.3095634217614821 21.462803926767105 -0.0000034474998063228686 0.000008070193906563331 0.0000029748370153329526 -2.6481412006465783 -2.04879238860935 32.510843085446346 1.247971999186923 -0.6844405600295836 26.03357899381601 -3.2495571969444293e-7 -0.000001899806886776792 -0.000001183279111251214 -3.6547774104926884 8.13030971758144 20.54031696426919 -19.52981027727939 -8.58062824646197 -8.937764291894474 0.000002231324090779093 0.000004237706734044115 0.000007466467021815095 -3.308101217118137 -60.355192121963455 21.46826238079555 -4.082976358404966 59.2237269820576 -5.453741529611221 -17.902942093167262 10.627650246968784 -21.984302680412046 5.29074333988237 -3.287917748256399 -9.586443304040284 -6.40472712383911 -22.731124860310555 -53.6169288606095 173.72051384971647 48.34432793675021 172.81391139836887 9.890807116484849 3.2396092914623416 -17.581633104341442 2.037795212642539 -22.09744669815023 -3.0567160828979505
-0.3044300675392151 -5.558478327659042 -0.7814887166023254 1.2360487338673027 -12.256313584339795 28.710679639430065 -0.0363694482011274 14.965516779878127 -3.399971469309053 -5.05452454923005 59.65120713460702 -16.709368910965868 0 0 0 -10.454708526506927 4.507566638572737 0.4320502088350216 -8.554148148324341 -35.152752203235394 1.141712431242155 0 0 0 0 0 0 0.48028146417011747 -0.9548363402091627 -3.929436952426957 19.986948129855893 -18.88843672221264 -67.75770608411628 -99.99364092561424 3.1266495744690825 0.7187541996641764 8.168956393693446 33.27261020912258 -0.8331301341420525 13.418901087507724 -0.6848835400963046 -24.553197357283004 1.1786986349797537 0.32347320756576653 -14.582986303798085 8.521945135744659e-7 -2.1792191244321106e-7 0.0000025309313239954577 6.311228353994561 4.045972269384745 -31.945053715405827 -4.702089718631439 -1.1561659918401246 -25.223763172277827 -0.0000028683436988220705 0.000001743009103201884 -0.0000024985008617970084 4.533915707058051 1.5754886038087341 -26.61761242731051 -0.43902978729975173 -0.062382958140339055 -9.763355092620136 1.139979627027678e-10 6.3611093629270335e-15 -1.43444452663829e-12 5.937724714894309 1.3822352298478415 -31.015102572430756 -1.9014816270412724 -0.7783933156745345 -28.324090940404297 7.981372973195629e-7 -2.494114139002586e-7 -1.0309038062664593e-8 6.414198145360771 8.429608222333409 4.101757510476405 23.089749416273584 1.54361802073599 8.28817172521982 0.000007611937552502998 0.000009677048807183644 -0.000010755909239575867 7.393401436475719 -8.166851330259298 1.0238550583261636 32.365465861228174 -2.6451937339897835 31.621117317811652 47.483255996871776 -2.7560320835511485 -0.5242186733540551 -6.570334190008474 0.7538186594092583 -7.814039400727577 -9.924791352514003 1.0526012852336353 37.221508348343065 -0.7985066934563072 0.12103548440415086 13.626943466182652 3.933694872703174e-10 3.1805546814635168e-15 -4.874754472204794e-12 4.916002457875242 -4.59426835866676 33.99812882585315 4.007508357757053 -1.110560112969822 20.454382284168172 0.0000016797014090447868 0.000003467099351158676 0.000006747616474483437 -6.407845184145783 4.715648051847026 29.738423617543756 1.4222205608352119 -0.3074325052540963 21.41603383126333 -0.0000034474998063228686 0.000008070193906563331 0.0000029748370153329526 -2.3720861071788044 -2.2667996163287123 33.10105183339168 1.2450232870195643 -0.6815772266628892 26.142850714724332 -3.2495571969444293e-7 -0.000001899806886776792 -0.000001183279111251214 -2.4481215869855477 8.909229306110698 21.783378182256364 -20.215153862537647 -9.59987085730435 -9.03119815699857 0.000002231324090779093 0.000004237706734044115 0.000007466467021815095 -2.9548406168990664 -59.19264610645523 21.90224261856935 -6.731959535038789 57.72651130533583 -7.708855622461084 -16.351418604347113 12.647783888542882 -26.28271183593211 4.883070554769774 -3.5573051721547855 -9.310901818517937 -4.881160478798535 -22.540766618712965 -55.978546386664945 173.29666721042733 47.44455020890474 171.21107290699007 10.821778212186619 3.4732207970291924 -17.863393661575714 2.176546722642521 -22.43891410923592 -3.245619778650332
